<svg width="1336" height="200" viewBox="0 0 1336 200" fill="none" xmlns="http://www.w3.org/2000/svg">
<path d="M385.091 59.9091L412.727 138.273H413.818L441.455 59.9091H453.273L419.091 153H407.455L373.273 59.9091H385.091ZM466.318 153V83.1818H477.045V153H466.318ZM471.773 71.5455C469.682 71.5455 467.879 70.8333 466.364 69.4091C464.879 67.9848 464.136 66.2727 464.136 64.2727C464.136 62.2727 464.879 60.5606 466.364 59.1364C467.879 57.7121 469.682 57 471.773 57C473.864 57 475.652 57.7121 477.136 59.1364C478.652 60.5606 479.409 62.2727 479.409 64.2727C479.409 66.2727 478.652 67.9848 477.136 69.4091C475.652 70.8333 473.864 71.5455 471.773 71.5455ZM523.057 154.455C517.239 154.455 512.102 152.985 507.648 150.045C503.193 147.076 499.708 142.894 497.193 137.5C494.678 132.076 493.42 125.667 493.42 118.273C493.42 110.939 494.678 104.576 497.193 99.1818C499.708 93.7879 503.208 89.6212 507.693 86.6818C512.178 83.7424 517.36 82.2727 523.239 82.2727C527.784 82.2727 531.375 83.0303 534.011 84.5455C536.678 86.0303 538.708 87.7273 540.102 89.6364C541.527 91.5151 542.633 93.0606 543.42 94.2727H544.33V59.9091H555.057V153H544.693V142.273H543.42C542.633 143.545 541.511 145.152 540.057 147.091C538.602 149 536.527 150.712 533.83 152.227C531.133 153.712 527.542 154.455 523.057 154.455ZM524.511 144.818C528.814 144.818 532.451 143.697 535.42 141.455C538.39 139.182 540.648 136.045 542.193 132.045C543.739 128.015 544.511 123.364 544.511 118.091C544.511 112.879 543.754 108.318 542.239 104.409C540.723 100.47 538.481 97.4091 535.511 95.2273C532.542 93.0151 528.875 91.9091 524.511 91.9091C519.966 91.9091 516.178 93.0758 513.148 95.4091C510.148 97.7121 507.89 100.848 506.375 104.818C504.89 108.758 504.148 113.182 504.148 118.091C504.148 123.061 504.905 127.576 506.42 131.636C507.966 135.667 510.239 138.879 513.239 141.273C516.269 143.636 520.027 144.818 524.511 144.818ZM605.466 154.455C598.739 154.455 592.936 152.97 588.057 150C583.208 147 579.466 142.818 576.83 137.455C574.223 132.061 572.92 125.788 572.92 118.636C572.92 111.485 574.223 105.182 576.83 99.7273C579.466 94.2424 583.133 89.9697 587.83 86.9091C592.557 83.8182 598.072 82.2727 604.375 82.2727C608.011 82.2727 611.602 82.8788 615.148 84.0909C618.693 85.303 621.92 87.2727 624.83 90C627.739 92.697 630.057 96.2727 631.784 100.727C633.511 105.182 634.375 110.667 634.375 117.182V121.727H580.557V112.455H623.466C623.466 108.515 622.678 105 621.102 101.909C619.557 98.8182 617.345 96.3788 614.466 94.5909C611.617 92.803 608.254 91.9091 604.375 91.9091C600.102 91.9091 596.405 92.9697 593.284 95.0909C590.193 97.1818 587.814 99.9091 586.148 103.273C584.481 106.636 583.648 110.242 583.648 114.091V120.273C583.648 125.545 584.557 130.015 586.375 133.682C588.223 137.318 590.784 140.091 594.057 142C597.33 143.879 601.133 144.818 605.466 144.818C608.284 144.818 610.83 144.424 613.102 143.636C615.405 142.818 617.39 141.606 619.057 140C620.723 138.364 622.011 136.333 622.92 133.909L633.284 136.818C632.193 140.333 630.36 143.424 627.784 146.091C625.208 148.727 622.027 150.788 618.239 152.273C614.451 153.727 610.193 154.455 605.466 154.455ZM679.057 154.455C672.754 154.455 667.223 152.955 662.466 149.955C657.739 146.955 654.042 142.758 651.375 137.364C648.739 131.97 647.42 125.667 647.42 118.455C647.42 111.182 648.739 104.833 651.375 99.4091C654.042 93.9848 657.739 89.7727 662.466 86.7727C667.223 83.7727 672.754 82.2727 679.057 82.2727C685.36 82.2727 690.875 83.7727 695.602 86.7727C700.36 89.7727 704.057 93.9848 706.693 99.4091C709.36 104.833 710.693 111.182 710.693 118.455C710.693 125.667 709.36 131.97 706.693 137.364C704.057 142.758 700.36 146.955 695.602 149.955C690.875 152.955 685.36 154.455 679.057 154.455ZM679.057 144.818C683.845 144.818 687.784 143.591 690.875 141.136C693.966 138.682 696.254 135.455 697.739 131.455C699.223 127.455 699.966 123.121 699.966 118.455C699.966 113.788 699.223 109.439 697.739 105.409C696.254 101.379 693.966 98.1212 690.875 95.6364C687.784 93.1515 683.845 91.9091 679.057 91.9091C674.269 91.9091 670.33 93.1515 667.239 95.6364C664.148 98.1212 661.86 101.379 660.375 105.409C658.89 109.439 658.148 113.788 658.148 118.455C658.148 123.121 658.89 127.455 660.375 131.455C661.86 135.455 664.148 138.682 667.239 141.136C670.33 143.591 674.269 144.818 679.057 144.818ZM764.523 59.9091H777.977L809.614 137.182H810.705L842.341 59.9091H855.795V153H845.25V82.2727H844.341L815.25 153H805.068L775.977 82.2727H775.068V153H764.523V59.9091ZM897.489 154.636C893.064 154.636 889.049 153.803 885.443 152.136C881.837 150.439 878.973 148 876.852 144.818C874.731 141.606 873.67 137.727 873.67 133.182C873.67 129.182 874.458 125.939 876.034 123.455C877.61 120.939 879.716 118.97 882.352 117.545C884.989 116.121 887.898 115.061 891.08 114.364C894.292 113.636 897.519 113.061 900.761 112.636C905.004 112.091 908.443 111.682 911.08 111.409C913.746 111.106 915.686 110.606 916.898 109.909C918.14 109.212 918.761 108 918.761 106.273V105.909C918.761 101.424 917.534 97.9394 915.08 95.4545C912.655 92.9697 908.973 91.7273 904.034 91.7273C898.913 91.7273 894.898 92.8485 891.989 95.0909C889.08 97.3333 887.034 99.7273 885.852 102.273L875.67 98.6364C877.489 94.3939 879.913 91.0909 882.943 88.7273C886.004 86.3333 889.337 84.6667 892.943 83.7273C896.58 82.7576 900.155 82.2727 903.67 82.2727C905.913 82.2727 908.489 82.5455 911.398 83.0909C914.337 83.6061 917.17 84.6818 919.898 86.3182C922.655 87.9545 924.943 90.4242 926.761 93.7273C928.58 97.0303 929.489 101.455 929.489 107V153H918.761V143.545H918.216C917.489 145.061 916.277 146.682 914.58 148.409C912.883 150.136 910.625 151.606 907.807 152.818C904.989 154.03 901.549 154.636 897.489 154.636ZM899.125 145C903.367 145 906.943 144.167 909.852 142.5C912.792 140.833 915.004 138.682 916.489 136.045C918.004 133.409 918.761 130.636 918.761 127.727V117.909C918.307 118.455 917.307 118.955 915.761 119.409C914.246 119.833 912.489 120.212 910.489 120.545C908.519 120.848 906.595 121.121 904.716 121.364C902.867 121.576 901.367 121.758 900.216 121.909C897.428 122.273 894.822 122.864 892.398 123.682C890.004 124.47 888.064 125.667 886.58 127.273C885.125 128.848 884.398 131 884.398 133.727C884.398 137.455 885.777 140.273 888.534 142.182C891.322 144.061 894.852 145 899.125 145ZM959.795 111V153H949.068V83.1818H959.432V94.0909H960.341C961.977 90.5455 964.462 87.697 967.795 85.5455C971.129 83.3636 975.432 82.2727 980.705 82.2727C985.432 82.2727 989.568 83.2424 993.114 85.1818C996.659 87.0909 999.417 90 1001.39 93.9091C1003.36 97.7879 1004.34 102.697 1004.34 108.636V153H993.614V109.364C993.614 103.879 992.189 99.6061 989.341 96.5455C986.492 93.4545 982.583 91.9091 977.614 91.9091C974.189 91.9091 971.129 92.6515 968.432 94.1364C965.765 95.6212 963.659 97.7879 962.114 100.636C960.568 103.485 959.795 106.939 959.795 111ZM1044.49 154.636C1040.06 154.636 1036.05 153.803 1032.44 152.136C1028.84 150.439 1025.97 148 1023.85 144.818C1021.73 141.606 1020.67 137.727 1020.67 133.182C1020.67 129.182 1021.46 125.939 1023.03 123.455C1024.61 120.939 1026.72 118.97 1029.35 117.545C1031.99 116.121 1034.9 115.061 1038.08 114.364C1041.29 113.636 1044.52 113.061 1047.76 112.636C1052 112.091 1055.44 111.682 1058.08 111.409C1060.75 111.106 1062.69 110.606 1063.9 109.909C1065.14 109.212 1065.76 108 1065.76 106.273V105.909C1065.76 101.424 1064.53 97.9394 1062.08 95.4545C1059.66 92.9697 1055.97 91.7273 1051.03 91.7273C1045.91 91.7273 1041.9 92.8485 1038.99 95.0909C1036.08 97.3333 1034.03 99.7273 1032.85 102.273L1022.67 98.6364C1024.49 94.3939 1026.91 91.0909 1029.94 88.7273C1033 86.3333 1036.34 84.6667 1039.94 83.7273C1043.58 82.7576 1047.16 82.2727 1050.67 82.2727C1052.91 82.2727 1055.49 82.5455 1058.4 83.0909C1061.34 83.6061 1064.17 84.6818 1066.9 86.3182C1069.66 87.9545 1071.94 90.4242 1073.76 93.7273C1075.58 97.0303 1076.49 101.455 1076.49 107V153H1065.76V143.545H1065.22C1064.49 145.061 1063.28 146.682 1061.58 148.409C1059.88 150.136 1057.63 151.606 1054.81 152.818C1051.99 154.03 1048.55 154.636 1044.49 154.636ZM1046.12 145C1050.37 145 1053.94 144.167 1056.85 142.5C1059.79 140.833 1062 138.682 1063.49 136.045C1065 133.409 1065.76 130.636 1065.76 127.727V117.909C1065.31 118.455 1064.31 118.955 1062.76 119.409C1061.25 119.833 1059.49 120.212 1057.49 120.545C1055.52 120.848 1053.59 121.121 1051.72 121.364C1049.87 121.576 1048.37 121.758 1047.22 121.909C1044.43 122.273 1041.82 122.864 1039.4 123.682C1037 124.47 1035.06 125.667 1033.58 127.273C1032.13 128.848 1031.4 131 1031.4 133.727C1031.4 137.455 1032.78 140.273 1035.53 142.182C1038.32 144.061 1041.85 145 1046.12 145ZM1124.25 180.636C1119.07 180.636 1114.61 179.97 1110.89 178.636C1107.16 177.333 1104.05 175.606 1101.57 173.455C1099.11 171.333 1097.16 169.061 1095.7 166.636L1104.25 160.636C1105.22 161.909 1106.45 163.364 1107.93 165C1109.42 166.667 1111.45 168.106 1114.02 169.318C1116.63 170.561 1120.04 171.182 1124.25 171.182C1129.89 171.182 1134.54 169.818 1138.2 167.091C1141.87 164.364 1143.7 160.091 1143.7 154.273V140.091H1142.8C1142.01 141.364 1140.89 142.939 1139.43 144.818C1138.01 146.667 1135.95 148.318 1133.25 149.773C1130.58 151.197 1126.98 151.909 1122.43 151.909C1116.8 151.909 1111.73 150.576 1107.25 147.909C1102.8 145.242 1099.27 141.364 1096.66 136.273C1094.08 131.182 1092.8 125 1092.8 117.727C1092.8 110.576 1094.05 104.348 1096.57 99.0455C1099.08 93.7121 1102.58 89.5909 1107.07 86.6818C1111.55 83.7424 1116.73 82.2727 1122.61 82.2727C1127.16 82.2727 1130.77 83.0303 1133.43 84.5455C1136.13 86.0303 1138.19 87.7273 1139.61 89.6364C1141.07 91.5151 1142.19 93.0606 1142.98 94.2727H1144.07V83.1818H1154.43V155C1154.43 161 1153.07 165.879 1150.34 169.636C1147.64 173.424 1144.01 176.197 1139.43 177.955C1134.89 179.742 1129.83 180.636 1124.25 180.636ZM1123.89 142.273C1128.19 142.273 1131.83 141.288 1134.8 139.318C1137.77 137.348 1140.02 134.515 1141.57 130.818C1143.11 127.121 1143.89 122.697 1143.89 117.545C1143.89 112.515 1143.13 108.076 1141.61 104.227C1140.1 100.379 1137.86 97.3636 1134.89 95.1818C1131.92 93 1128.25 91.9091 1123.89 91.9091C1119.34 91.9091 1115.55 93.0606 1112.52 95.3636C1109.52 97.6667 1107.27 100.758 1105.75 104.636C1104.27 108.515 1103.52 112.818 1103.52 117.545C1103.52 122.394 1104.28 126.682 1105.8 130.409C1107.34 134.106 1109.61 137.015 1112.61 139.136C1115.64 141.227 1119.4 142.273 1123.89 142.273ZM1203.34 154.455C1196.61 154.455 1190.81 152.97 1185.93 150C1181.08 147 1177.34 142.818 1174.7 137.455C1172.1 132.061 1170.8 125.788 1170.8 118.636C1170.8 111.485 1172.1 105.182 1174.7 99.7273C1177.34 94.2424 1181.01 89.9697 1185.7 86.9091C1190.43 83.8182 1195.95 82.2727 1202.25 82.2727C1205.89 82.2727 1209.48 82.8788 1213.02 84.0909C1216.57 85.303 1219.8 87.2727 1222.7 90C1225.61 92.697 1227.93 96.2727 1229.66 100.727C1231.39 105.182 1232.25 110.667 1232.25 117.182V121.727H1178.43V112.455H1221.34C1221.34 108.515 1220.55 105 1218.98 101.909C1217.43 98.8182 1215.22 96.3788 1212.34 94.5909C1209.49 92.803 1206.13 91.9091 1202.25 91.9091C1197.98 91.9091 1194.28 92.9697 1191.16 95.0909C1188.07 97.1818 1185.69 99.9091 1184.02 103.273C1182.36 106.636 1181.52 110.242 1181.52 114.091V120.273C1181.52 125.545 1182.43 130.015 1184.25 133.682C1186.1 137.318 1188.66 140.091 1191.93 142C1195.2 143.879 1199.01 144.818 1203.34 144.818C1206.16 144.818 1208.7 144.424 1210.98 143.636C1213.28 142.818 1215.27 141.606 1216.93 140C1218.6 138.364 1219.89 136.333 1220.8 133.909L1231.16 136.818C1230.07 140.333 1228.23 143.424 1225.66 146.091C1223.08 148.727 1219.9 150.788 1216.11 152.273C1212.33 153.727 1208.07 154.455 1203.34 154.455ZM1248.57 153V83.1818H1258.93V93.7273H1259.66C1260.93 90.2727 1263.23 87.4697 1266.57 85.3182C1269.9 83.1667 1273.66 82.0909 1277.84 82.0909C1278.63 82.0909 1279.61 82.1061 1280.8 82.1364C1281.98 82.1667 1282.87 82.2121 1283.48 82.2727V93.1818C1283.11 93.0909 1282.28 92.9545 1280.98 92.7727C1279.7 92.5606 1278.36 92.4545 1276.93 92.4545C1273.54 92.4545 1270.51 93.1667 1267.84 94.5909C1265.2 95.9848 1263.11 97.9242 1261.57 100.409C1260.05 102.864 1259.3 105.667 1259.3 108.818V153H1248.57Z" fill="white"/>
<rect x="194.855" y="16.5097" width="39.145" height="173.786" rx="19.5725" fill="#FF839C" fill-opacity="0.8"/>
<g filter="url(#filter0_i_6_278)">
<rect x="194.855" y="151.194" width="39.145" height="39.1019" rx="19.5509" fill="#FF839C" fill-opacity="0.8"/>
</g>
<rect x="134.833" y="0.868958" width="39.145" height="196.378" rx="19.5725" fill="#AB8FFF" fill-opacity="0.8"/>
<g filter="url(#filter1_d_6_278)">
<rect x="134.833" y="0.868958" width="39.145" height="125.995" rx="19.5725" fill="#D7CAFD" fill-opacity="0.8" shape-rendering="crispEdges"/>
</g>
<rect x="74.8104" y="16.5097" width="39.145" height="173.786" rx="19.5725" fill="#61BEFF" fill-opacity="0.8"/>
<g filter="url(#filter2_i_6_278)">
<path d="M10.0092 63.8632C4.6014 54.507 7.80643 42.5456 17.1678 37.1468V37.1468C26.5292 31.7479 38.5019 34.956 43.9097 44.3122L111.315 160.934C116.723 170.29 113.518 182.251 104.157 187.65V187.65C94.7953 193.049 82.8225 189.841 77.4147 180.485L10.0092 63.8632Z" fill="#8BFFDD" fill-opacity="0.8"/>
</g>
<defs>
<filter id="filter0_i_6_278" x="194.855" y="151.194" width="39.145" height="47.1019" filterUnits="userSpaceOnUse" color-interpolation-filters="sRGB">
<feFlood flood-opacity="0" result="BackgroundImageFix"/>
<feBlend mode="normal" in="SourceGraphic" in2="BackgroundImageFix" result="shape"/>
<feColorMatrix in="SourceAlpha" type="matrix" values="0 0 0 0 0 0 0 0 0 0 0 0 0 0 0 0 0 0 127 0" result="hardAlpha"/>
<feOffset dy="16"/>
<feGaussianBlur stdDeviation="4"/>
<feComposite in2="hardAlpha" operator="arithmetic" k2="-1" k3="1"/>
<feColorMatrix type="matrix" values="0 0 0 0 0 0 0 0 0 0 0 0 0 0 0 0 0 0 0.02 0"/>
<feBlend mode="normal" in2="shape" result="effect1_innerShadow_6_278"/>
</filter>
<filter id="filter1_d_6_278" x="126.833" y="0.868958" width="55.145" height="149.995" filterUnits="userSpaceOnUse" color-interpolation-filters="sRGB">
<feFlood flood-opacity="0" result="BackgroundImageFix"/>
<feColorMatrix in="SourceAlpha" type="matrix" values="0 0 0 0 0 0 0 0 0 0 0 0 0 0 0 0 0 0 127 0" result="hardAlpha"/>
<feOffset dy="16"/>
<feGaussianBlur stdDeviation="4"/>
<feComposite in2="hardAlpha" operator="out"/>
<feColorMatrix type="matrix" values="0 0 0 0 0 0 0 0 0 0 0 0 0 0 0 0 0 0 0.02 0"/>
<feBlend mode="normal" in2="BackgroundImageFix" result="effect1_dropShadow_6_278"/>
<feBlend mode="normal" in="SourceGraphic" in2="effect1_dropShadow_6_278" result="shape"/>
</filter>
<filter id="filter2_i_6_278" x="7.38098" y="34.5254" width="106.562" height="163.746" filterUnits="userSpaceOnUse" color-interpolation-filters="sRGB">
<feFlood flood-opacity="0" result="BackgroundImageFix"/>
<feBlend mode="normal" in="SourceGraphic" in2="BackgroundImageFix" result="shape"/>
<feColorMatrix in="SourceAlpha" type="matrix" values="0 0 0 0 0 0 0 0 0 0 0 0 0 0 0 0 0 0 127 0" result="hardAlpha"/>
<feOffset dy="16"/>
<feGaussianBlur stdDeviation="4"/>
<feComposite in2="hardAlpha" operator="arithmetic" k2="-1" k3="1"/>
<feColorMatrix type="matrix" values="0 0 0 0 0 0 0 0 0 0 0 0 0 0 0 0 0 0 0.02 0"/>
<feBlend mode="normal" in2="shape" result="effect1_innerShadow_6_278"/>
</filter>
</defs>
</svg>
